# xmcd
#
# Track frame offsets:
#	182
#	12325
#	28225
#	40495
#	55222
#	70907
#	88410
#	103210
#	116080
#	133042
#	148237
#	164092
#	182617
#	202337
#
# Disc length: 2961 seconds
#
# Revision: 3
# Processed by: cddbd v1.4PL0 Copyright (c) Steve Scherf et al.
# Submitted via: audiograbber 1.81.03
#
DISCID=e30b8f0e
DTITLE=The Blues Band - Itchy Feet
DYEAR=1981
DGENRE=Blues
TTITLE0=Talkin Woman Blues
TTITLE1=Who's Right, Who's Wrong
TTITLE2=Rock N Roll Radio
TTITLE3=Itchy Feet
TTITLE4=Ultimatum Time
TTITLE5=So Lonely
TTITLE6=Maggies Farm
TTITLE7=Come On
TTITLE8=Turn Around
TTITLE9=I Can T Be Satisfied
TTITLE10=Got To Love You Baby
TTITLE11=Nothin But The Blues
TTITLE12=Let Your Bucket Down
TTITLE13=Back Door Man
EXTD=
EXTT0=
EXTT1=
EXTT2=
EXTT3=
EXTT4=
EXTT5=
EXTT6=
EXTT7=
EXTT8=
EXTT9=
EXTT10=
EXTT11=
EXTT12=
EXTT13=
PLAYORDER=
